<svg width="16" height="16" viewBox="0 0 16 16" fill="none" xmlns="http://www.w3.org/2000/svg">
<g clip-path="url(#clip0_64_9309)">
<path d="M11.7657 9.51611H9.25537C8.99646 9.51611 8.78662 9.72607 8.78662 9.98486V12.5166C8.78662 12.7754 8.99646 12.9854 9.25537 12.9854H11.7657C12.0247 12.9854 12.2345 12.7754 12.2345 12.5166V9.98486C12.2345 9.72607 12.0247 9.51611 11.7657 9.51611ZM11.297 12.0479H9.72412V10.4536H11.297V12.0479Z" fill="#62D0B6"/>
<path d="M15.9819 4.35461L15.3226 2.047C15.0747 1.17944 14.174 0.5 13.2719 0.5H2.72815C1.82605 0.5 0.925293 1.17944 0.677368 2.047L0.0180664 4.35461C0.0061035 4.39648 0 4.43982 0 4.4834V5.9895C0 6.82471 0.52124 7.53979 1.25525 7.82825V13.7719C1.25525 14.7224 2.02856 15.4958 2.97925 15.4958H13.0209C13.9714 15.4958 14.7449 14.7224 14.7449 13.7719V7.82825C15.4788 7.53979 16 6.82471 16 5.9895V4.4834C16 4.43982 15.9939 4.39648 15.9819 4.35461ZM1.57886 2.30457C1.71082 1.84265 2.2478 1.4375 2.72815 1.4375H13.2719C13.7521 1.4375 14.2892 1.84265 14.4211 2.30457L14.9098 4.01465H1.09021L1.57886 2.30457ZM3.94995 4.95215H6.02502V5.9895C6.02502 6.56165 5.55957 7.0271 4.98743 7.0271C4.41541 7.0271 3.94995 6.56165 3.94995 5.9895V4.95215ZM6.96252 4.95215H9.03748V5.9895C9.03748 6.56165 8.57202 7.0271 8 7.0271C7.42798 7.0271 6.96252 6.56165 6.96252 5.9895V4.95215ZM9.97498 4.95215H12.0499V5.9895C12.0499 6.56165 11.5846 7.0271 11.0125 7.0271C10.4404 7.0271 9.97498 6.56165 9.97498 5.9895V4.95215ZM0.9375 5.9895V4.95215H3.01245V5.9895C3.01245 6.56165 2.54712 7.0271 1.97498 7.0271C1.40295 7.0271 0.9375 6.56165 0.9375 5.9895ZM4.70312 14.5583V11.7302H6.27612V14.5583H4.70312ZM13.0209 14.5583H7.21362V11.2615C7.21362 11.0027 7.00366 10.7927 6.74487 10.7927H4.23438C3.97559 10.7927 3.76562 11.0027 3.76562 11.2615V14.5583H2.97925C2.54553 14.5583 2.19275 14.2056 2.19275 13.7719V7.95239C2.7074 7.89563 3.16296 7.64038 3.4812 7.26501C3.84387 7.6925 4.38428 7.9646 4.98743 7.9646C5.59058 7.9646 6.13123 7.6925 6.49377 7.26501C6.85632 7.6925 7.39685 7.9646 8 7.9646C8.60315 7.9646 9.14368 7.6925 9.50623 7.26501C9.86877 7.6925 10.4093 7.9646 11.0125 7.9646C11.6156 7.9646 12.1561 7.6925 12.5187 7.26501C12.837 7.64038 13.2926 7.89563 13.8073 7.95239V13.7719C13.8074 14.2056 13.4545 14.5583 13.0209 14.5583ZM14.025 7.0271C13.4529 7.0271 12.9875 6.56165 12.9875 5.98962V4.95215H15.0625V5.98962C15.0625 6.56165 14.597 7.0271 14.025 7.0271Z" fill="#62D0B6"/>
</g>
<defs>
<clipPath id="clip0_64_9309">
<rect width="16" height="16" fill="white"/>
</clipPath>
</defs>
</svg>
