<svg width="17" height="16" viewBox="0 0 17 16" fill="none" xmlns="http://www.w3.org/2000/svg">
<path d="M4.86699 15.1668C5.62033 15.1668 6.41366 14.9868 7.23366 14.6402C8.03366 14.3002 8.84032 13.8335 9.62699 13.2668C10.407 12.6935 11.1603 12.0535 11.8737 11.3535C12.5803 10.6402 13.2203 9.88683 13.787 9.1135C14.3603 8.3135 14.8203 7.5135 15.147 6.74016C15.4937 5.9135 15.667 5.1135 15.667 4.36016C15.667 3.84016 15.5737 3.34683 15.3937 2.88683C15.207 2.4135 14.907 1.9735 14.5003 1.5935C13.987 1.08683 13.4003 0.833496 12.7737 0.833496C12.5137 0.833496 12.247 0.893496 12.0203 1.00016C11.7603 1.12016 11.5403 1.30016 11.3803 1.54016L9.83366 3.72016C9.69366 3.9135 9.58699 4.10016 9.51366 4.28683C9.42699 4.48683 9.38033 4.68683 9.38033 4.88016C9.38033 5.1335 9.45366 5.38016 9.59366 5.6135C9.69366 5.7935 9.84699 5.98683 10.0403 6.18016L10.4937 6.6535C10.487 6.6735 10.4803 6.68683 10.4737 6.70016C10.3937 6.84016 10.2337 7.08016 9.92699 7.44016C9.60033 7.8135 9.29366 8.1535 8.98699 8.46683C8.59366 8.8535 8.26699 9.16016 7.96033 9.4135C7.58033 9.7335 7.33366 9.8935 7.18699 9.96683L7.20033 10.0002L6.71366 9.52016C6.50699 9.3135 6.30699 9.16016 6.11366 9.06016C5.74699 8.8335 5.28032 8.7935 4.81366 8.98683C4.64032 9.06016 4.45366 9.16016 4.25366 9.30016L2.04033 10.8735C1.79366 11.0402 1.61366 11.2535 1.50699 11.5068C1.40699 11.7602 1.36033 11.9935 1.36033 12.2268C1.36033 12.5468 1.43366 12.8668 1.57366 13.1668C1.71366 13.4668 1.88699 13.7268 2.10699 13.9668C2.48699 14.3868 2.90032 14.6868 3.38033 14.8802C3.84033 15.0668 4.34032 15.1668 4.86699 15.1668ZM12.7737 1.8335C13.1403 1.8335 13.4803 1.9935 13.807 2.3135C14.1137 2.60016 14.327 2.9135 14.4603 3.2535C14.6003 3.60016 14.667 3.96683 14.667 4.36016C14.667 4.98016 14.5203 5.6535 14.227 6.34683C13.927 7.0535 13.507 7.78683 12.9737 8.52016C12.4403 9.2535 11.8337 9.96683 11.167 10.6402C10.5003 11.3002 9.78033 11.9135 9.04033 12.4535C8.32033 12.9802 7.58033 13.4068 6.84699 13.7135C5.70699 14.2002 4.64032 14.3135 3.76032 13.9468C3.42032 13.8068 3.12033 13.5935 2.84699 13.2868C2.69366 13.1202 2.57366 12.9402 2.47366 12.7268C2.39366 12.5602 2.35366 12.3868 2.35366 12.2135C2.35366 12.1068 2.37366 12.0002 2.42699 11.8802C2.44699 11.8402 2.48699 11.7668 2.61366 11.6802L4.82699 10.1068C4.96033 10.0135 5.08033 9.94683 5.19366 9.90016C5.34033 9.84016 5.40033 9.78016 5.62699 9.92016C5.76033 9.98683 5.88033 10.0868 6.01366 10.2202L6.52032 10.7202C6.78032 10.9735 7.18032 11.0335 7.48699 10.9202L7.66699 10.8402C7.94033 10.6935 8.26033 10.4668 8.61366 10.1668C8.93366 9.8935 9.28033 9.5735 9.70033 9.16016C10.027 8.82683 10.3537 8.4735 10.6937 8.08016C11.007 7.7135 11.2337 7.40016 11.3737 7.14016L11.4537 6.94016C11.4937 6.78683 11.507 6.70016 11.507 6.60683C11.507 6.36683 11.4203 6.1535 11.2537 5.98683L10.7537 5.46683C10.6203 5.3335 10.5203 5.20683 10.4537 5.0935C10.4003 5.00683 10.3803 4.9335 10.3803 4.86683C10.3803 4.8135 10.4003 4.7335 10.4337 4.6535C10.4803 4.54683 10.5537 4.42683 10.647 4.30016L12.1937 2.1135C12.2603 2.02016 12.3403 1.9535 12.4403 1.90683C12.547 1.86016 12.6603 1.8335 12.7737 1.8335ZM7.20033 10.0068L7.30699 10.4602L7.12699 9.9935C7.16033 9.98683 7.18699 9.9935 7.20033 10.0068Z" fill="#62D0B6"/>
<path d="M4.16667 6.49984C4.44 6.49984 4.66667 6.27317 4.66667 5.99984C4.66667 5.75984 4.90667 5.25984 5.30667 4.83317C5.7 4.41317 6.13333 4.1665 6.5 4.1665C6.77333 4.1665 7 3.93984 7 3.6665C7 3.39317 6.77333 3.1665 6.5 3.1665C5.85333 3.1665 5.17333 3.51317 4.58 4.1465C4.02667 4.73984 3.66667 5.4665 3.66667 5.99984C3.66667 6.27317 3.89333 6.49984 4.16667 6.49984Z" fill="#62D0B6"/>
<path d="M1.83333 6.50016C2.10667 6.50016 2.33333 6.2735 2.33333 6.00016C2.33333 3.70016 4.2 1.8335 6.5 1.8335C6.77333 1.8335 7 1.60683 7 1.3335C7 1.06016 6.77333 0.833496 6.5 0.833496C3.65333 0.833496 1.33333 3.1535 1.33333 6.00016C1.33333 6.2735 1.56 6.50016 1.83333 6.50016Z" fill="#62D0B6"/>
</svg>
