<svg width="28" height="28" viewBox="0 0 28 28" fill="none" xmlns="http://www.w3.org/2000/svg">
<rect width="28" height="28" rx="14" fill="#F8F8F8"/>
<path d="M10.1953 11.1381C9.93491 10.8777 9.93491 10.4556 10.1953 10.1953C10.4556 9.93491 10.8777 9.93491 11.1381 10.1953L14 13.0572L16.8619 10.1953C17.1222 9.93491 17.5444 9.93491 17.8047 10.1953C18.0651 10.4556 18.0651 10.8777 17.8047 11.1381L14.9428 14L17.8047 16.8619C18.0651 17.1222 18.0651 17.5444 17.8047 17.8047C17.5444 18.0651 17.1222 18.0651 16.8619 17.8047L14 14.9428L11.1381 17.8047C10.8777 18.0651 10.4556 18.0651 10.1953 17.8047C9.93491 17.5444 9.93491 17.1222 10.1953 16.8619L13.0572 14L10.1953 11.1381Z" fill="#444444"/>
</svg>
