<svg width="41" height="40" viewBox="0 0 41 40" fill="none" xmlns="http://www.w3.org/2000/svg">
<rect x="0.490234" width="40" height="40" rx="20" fill="#F8F8F8"/>
<path fill-rule="evenodd" clip-rule="evenodd" d="M13.8037 14.8458C13.7888 14.6808 13.8084 14.5144 13.8613 14.3574C13.9142 14.2004 13.9993 14.0561 14.111 13.9338C14.2228 13.8115 14.3588 13.7137 14.5104 13.6469C14.662 13.58 14.8259 13.5454 14.9916 13.5454H29.4543C29.6329 13.5455 29.8092 13.5857 29.9703 13.663C30.1313 13.7403 30.2729 13.8528 30.3846 13.9922C30.4963 14.1316 30.5753 14.2943 30.6158 14.4683C30.6562 14.6423 30.6571 14.8231 30.6183 14.9975L29.3963 20.5058C29.1861 21.4524 28.6593 22.299 27.9029 22.9057C27.1465 23.5124 26.2058 23.843 25.2361 23.8428H18.5092C17.4456 23.8429 16.4203 23.4451 15.6351 22.7276C14.8498 22.0101 14.3613 21.0249 14.2655 19.9655L13.8037 14.8458ZM15.5506 15.2497L15.963 19.8121C16.0205 20.448 16.3138 21.0394 16.7854 21.4699C17.2569 21.9005 17.8724 22.139 18.511 22.1385H25.2378C25.8195 22.1384 26.3837 21.9399 26.8374 21.5758C27.291 21.2117 27.6069 20.7038 27.7329 20.1359L28.8186 15.2497H15.5506Z" fill="#666666"/>
<path fill-rule="evenodd" clip-rule="evenodd" d="M10.2793 10.6852C10.2793 10.4592 10.3691 10.2424 10.5289 10.0826C10.6887 9.92279 10.9054 9.83301 11.1314 9.83301H14.1208C14.3292 9.83322 14.5304 9.90982 14.6861 10.0483C14.8419 10.1868 14.9415 10.3776 14.9661 10.5846L15.6513 16.3809C15.6777 16.6056 15.6138 16.8315 15.4737 17.0091C15.3335 17.1866 15.1286 17.3012 14.9039 17.3277C14.6793 17.3541 14.4533 17.2902 14.2758 17.1501C14.0982 17.0099 13.9836 16.805 13.9572 16.5803L13.3624 11.5356H11.1314C10.9054 11.5356 10.6887 11.4458 10.5289 11.286C10.3691 11.1262 10.2793 10.9112 10.2793 10.6852ZM17.9487 28.2957C18.1747 28.2957 18.3914 28.2059 18.5512 28.0461C18.711 27.8863 18.8008 27.6696 18.8008 27.4436C18.8008 27.2176 18.711 27.0008 18.5512 26.841C18.3914 26.6812 18.1747 26.5914 17.9487 26.5914C17.7226 26.5914 17.5059 26.6812 17.3461 26.841C17.1863 27.0008 17.0965 27.2176 17.0965 27.4436C17.0965 27.6696 17.1863 27.8863 17.3461 28.0461C17.5059 28.2059 17.7226 28.2957 17.9487 28.2957ZM17.9487 30C18.2844 30 18.6168 29.9339 18.927 29.8054C19.2371 29.6769 19.519 29.4886 19.7563 29.2512C19.9937 29.0138 20.182 28.732 20.3105 28.4219C20.439 28.1117 20.5051 27.7793 20.5051 27.4436C20.5051 27.1078 20.439 26.7754 20.3105 26.4652C20.182 26.1551 19.9937 25.8733 19.7563 25.6359C19.519 25.3985 19.2371 25.2102 18.927 25.0817C18.6168 24.9532 18.2844 24.8871 17.9487 24.8871C17.2706 24.8871 16.6204 25.1564 16.141 25.6359C15.6615 26.1153 15.3922 26.7655 15.3922 27.4436C15.3922 28.1216 15.6615 28.7718 16.141 29.2512C16.6204 29.7307 17.2706 30 17.9487 30ZM25.7237 28.2957C25.9497 28.2957 26.1664 28.2059 26.3262 28.0461C26.486 27.8863 26.5758 27.6696 26.5758 27.4436C26.5758 27.2176 26.486 27.0008 26.3262 26.841C26.1664 26.6812 25.9497 26.5914 25.7237 26.5914C25.4977 26.5914 25.2809 26.6812 25.1211 26.841C24.9613 27.0008 24.8715 27.2176 24.8715 27.4436C24.8715 27.6696 24.9613 27.8863 25.1211 28.0461C25.2809 28.2059 25.4977 28.2957 25.7237 28.2957ZM25.7237 30C26.0594 30 26.3918 29.9339 26.702 29.8054C27.0122 29.6769 27.294 29.4886 27.5314 29.2512C27.7688 29.0138 27.9571 28.732 28.0855 28.4219C28.214 28.1117 28.2801 27.7793 28.2801 27.4436C28.2801 27.1078 28.214 26.7754 28.0855 26.4652C27.9571 26.1551 27.7688 25.8733 27.5314 25.6359C27.294 25.3985 27.0122 25.2102 26.702 25.0817C26.3918 24.9532 26.0594 24.8871 25.7237 24.8871C25.0457 24.8871 24.3954 25.1564 23.916 25.6359C23.4366 26.1153 23.1672 26.7655 23.1672 27.4436C23.1672 28.1216 23.4366 28.7718 23.916 29.2512C24.3954 29.7307 25.0457 30 25.7237 30Z" fill="#666666"/>
</svg>
