<svg width="17" height="16" viewBox="0 0 17 16" fill="none" xmlns="http://www.w3.org/2000/svg">
<path fill-rule="evenodd" clip-rule="evenodd" d="M4.04229 4.5637C4.03235 4.45368 4.04543 4.3428 4.08071 4.23812C4.11599 4.13344 4.17269 4.03726 4.24719 3.9557C4.32169 3.87414 4.41237 3.809 4.51344 3.76442C4.61451 3.71984 4.72376 3.6968 4.83422 3.69678H14.476C14.5951 3.69683 14.7127 3.72362 14.82 3.77518C14.9274 3.82673 15.0218 3.90173 15.0962 3.99465C15.1707 4.08757 15.2234 4.19602 15.2504 4.31202C15.2773 4.42801 15.2779 4.54858 15.2521 4.66482L14.4374 8.33702C14.2972 8.96809 13.946 9.53247 13.4418 9.93696C12.9375 10.3414 12.3104 10.5618 11.6639 10.5617H7.17934C6.47022 10.5617 5.78673 10.2965 5.26321 9.81823C4.7397 9.33992 4.41402 8.68309 4.3502 7.97685L4.04229 4.5637ZM5.2069 4.83298L5.48186 7.87459C5.52017 8.29853 5.71573 8.69279 6.03008 8.9798C6.34443 9.26682 6.75481 9.42581 7.18048 9.4255H11.6651C12.0528 9.42541 12.429 9.29307 12.7314 9.05035C13.0338 8.80763 13.2444 8.46903 13.3285 8.09047L14.0522 4.83298H5.2069Z" fill="#62D0B6"/>
<path fill-rule="evenodd" clip-rule="evenodd" d="M1.69287 1.79002C1.69287 1.63935 1.75272 1.49486 1.85926 1.38832C1.9658 1.28178 2.1103 1.22192 2.26097 1.22192H4.25387C4.39283 1.22206 4.52692 1.27313 4.63077 1.36547C4.73462 1.4578 4.80103 1.585 4.81742 1.72299L5.27418 5.58721C5.29181 5.73697 5.24922 5.88761 5.15578 6.00597C5.06235 6.12434 4.92572 6.20074 4.77595 6.21837C4.62619 6.236 4.47555 6.19341 4.35719 6.09997C4.23882 6.00654 4.16242 5.86991 4.14479 5.72014L3.74826 2.35699H2.26097C2.1103 2.35699 1.9658 2.29714 1.85926 2.1906C1.75272 2.08406 1.69287 1.94069 1.69287 1.79002ZM6.80578 13.5304C6.95645 13.5304 7.10094 13.4705 7.20748 13.364C7.31402 13.2575 7.37388 13.113 7.37388 12.9623C7.37388 12.8116 7.31402 12.6671 7.20748 12.5606C7.10094 12.454 6.95645 12.3942 6.80578 12.3942C6.65511 12.3942 6.51061 12.454 6.40407 12.5606C6.29753 12.6671 6.23768 12.8116 6.23768 12.9623C6.23768 13.113 6.29753 13.2575 6.40407 13.364C6.51061 13.4705 6.65511 13.5304 6.80578 13.5304ZM6.80578 14.6666C7.02959 14.6666 7.25121 14.6225 7.45798 14.5369C7.66476 14.4512 7.85264 14.3257 8.0109 14.1674C8.16916 14.0092 8.2947 13.8213 8.38035 13.6145C8.46599 13.4077 8.51008 13.1861 8.51008 12.9623C8.51008 12.7385 8.46599 12.5169 8.38035 12.3101C8.2947 12.1033 8.16916 11.9154 8.0109 11.7572C7.85264 11.5989 7.66476 11.4734 7.45798 11.3877C7.25121 11.3021 7.02959 11.258 6.80578 11.258C6.35377 11.258 5.92027 11.4375 5.60065 11.7572C5.28103 12.0768 5.10147 12.5103 5.10147 12.9623C5.10147 13.4143 5.28103 13.8478 5.60065 14.1674C5.92027 14.487 6.35377 14.6666 6.80578 14.6666ZM11.9891 13.5304C12.1398 13.5304 12.2843 13.4705 12.3908 13.364C12.4974 13.2575 12.5572 13.113 12.5572 12.9623C12.5572 12.8116 12.4974 12.6671 12.3908 12.5606C12.2843 12.454 12.1398 12.3942 11.9891 12.3942C11.8385 12.3942 11.694 12.454 11.5874 12.5606C11.4809 12.6671 11.421 12.8116 11.421 12.9623C11.421 13.113 11.4809 13.2575 11.5874 13.364C11.694 13.4705 11.8385 13.5304 11.9891 13.5304ZM11.9891 14.6666C12.2129 14.6666 12.4346 14.6225 12.6413 14.5369C12.8481 14.4512 13.036 14.3257 13.1942 14.1674C13.3525 14.0092 13.478 13.8213 13.5637 13.6145C13.6493 13.4077 13.6934 13.1861 13.6934 12.9623C13.6934 12.7385 13.6493 12.5169 13.5637 12.3101C13.478 12.1033 13.3525 11.9154 13.1942 11.7572C13.036 11.5989 12.8481 11.4734 12.6413 11.3877C12.4346 11.3021 12.2129 11.258 11.9891 11.258C11.5371 11.258 11.1036 11.4375 10.784 11.7572C10.4644 12.0768 10.2848 12.5103 10.2848 12.9623C10.2848 13.4143 10.4644 13.8478 10.784 14.1674C11.1036 14.487 11.5371 14.6666 11.9891 14.6666Z" fill="#62D0B6"/>
</svg>
