<svg width="17" height="16" viewBox="0 0 17 16" fill="none" xmlns="http://www.w3.org/2000/svg">
<path fill-rule="evenodd" clip-rule="evenodd" d="M3.79229 4.5637C3.78235 4.45368 3.79543 4.3428 3.83071 4.23812C3.86599 4.13344 3.92269 4.03726 3.99719 3.9557C4.07169 3.87414 4.16237 3.809 4.26344 3.76442C4.36451 3.71984 4.47376 3.6968 4.58422 3.69678H14.226C14.3451 3.69683 14.4627 3.72362 14.57 3.77518C14.6774 3.82673 14.7718 3.90173 14.8462 3.99465C14.9207 4.08757 14.9734 4.19602 15.0004 4.31202C15.0273 4.42801 15.0279 4.54858 15.0021 4.66482L14.1874 8.33702C14.0472 8.96809 13.696 9.53247 13.1918 9.93696C12.6875 10.3414 12.0604 10.5618 11.4139 10.5617H6.92934C6.22022 10.5617 5.53673 10.2965 5.01321 9.81823C4.4897 9.33992 4.16402 8.68309 4.1002 7.97685L3.79229 4.5637ZM4.9569 4.83298L5.23186 7.87459C5.27017 8.29853 5.46573 8.69279 5.78008 8.9798C6.09443 9.26682 6.50481 9.42581 6.93048 9.4255H11.4151C11.8028 9.42541 12.179 9.29307 12.4814 9.05035C12.7838 8.80763 12.9944 8.46903 13.0785 8.09047L13.8022 4.83298H4.9569Z" fill="#333333"/>
<path fill-rule="evenodd" clip-rule="evenodd" d="M1.44238 1.79002C1.44238 1.63935 1.50224 1.49486 1.60878 1.38832C1.71532 1.28178 1.85981 1.22192 2.01048 1.22192H4.00338C4.14234 1.22206 4.27643 1.27313 4.38028 1.36547C4.48413 1.4578 4.55054 1.585 4.56694 1.72299L5.02369 5.58721C5.04132 5.73697 4.99873 5.88761 4.90529 6.00597C4.81186 6.12434 4.67523 6.20074 4.52546 6.21837C4.3757 6.236 4.22506 6.19341 4.1067 6.09997C3.98833 6.00654 3.91193 5.86991 3.8943 5.72014L3.49777 2.35699H2.01048C1.85981 2.35699 1.71532 2.29714 1.60878 2.1906C1.50224 2.08406 1.44238 1.94069 1.44238 1.79002ZM6.55529 13.5304C6.70596 13.5304 6.85046 13.4705 6.957 13.364C7.06353 13.2575 7.12339 13.113 7.12339 12.9623C7.12339 12.8116 7.06353 12.6671 6.957 12.5606C6.85046 12.454 6.70596 12.3942 6.55529 12.3942C6.40462 12.3942 6.26012 12.454 6.15358 12.5606C6.04704 12.6671 5.98719 12.8116 5.98719 12.9623C5.98719 13.113 6.04704 13.2575 6.15358 13.364C6.26012 13.4705 6.40462 13.5304 6.55529 13.5304ZM6.55529 14.6666C6.7791 14.6666 7.00072 14.6225 7.2075 14.5369C7.41427 14.4512 7.60215 14.3257 7.76041 14.1674C7.91867 14.0092 8.04421 13.8213 8.12986 13.6145C8.21551 13.4077 8.25959 13.1861 8.25959 12.9623C8.25959 12.7385 8.21551 12.5169 8.12986 12.3101C8.04421 12.1033 7.91867 11.9154 7.76041 11.7572C7.60215 11.5989 7.41427 11.4734 7.2075 11.3877C7.00072 11.3021 6.7791 11.258 6.55529 11.258C6.10328 11.258 5.66978 11.4375 5.35016 11.7572C5.03055 12.0768 4.85099 12.5103 4.85099 12.9623C4.85099 13.4143 5.03055 13.8478 5.35016 14.1674C5.66978 14.487 6.10328 14.6666 6.55529 14.6666ZM11.7386 13.5304C11.8893 13.5304 12.0338 13.4705 12.1403 13.364C12.2469 13.2575 12.3067 13.113 12.3067 12.9623C12.3067 12.8116 12.2469 12.6671 12.1403 12.5606C12.0338 12.454 11.8893 12.3942 11.7386 12.3942C11.588 12.3942 11.4435 12.454 11.3369 12.5606C11.2304 12.6671 11.1705 12.8116 11.1705 12.9623C11.1705 13.113 11.2304 13.2575 11.3369 13.364C11.4435 13.4705 11.588 13.5304 11.7386 13.5304ZM11.7386 14.6666C11.9624 14.6666 12.1841 14.6225 12.3908 14.5369C12.5976 14.4512 12.7855 14.3257 12.9438 14.1674C13.102 14.0092 13.2276 13.8213 13.3132 13.6145C13.3989 13.4077 13.4429 13.1861 13.4429 12.9623C13.4429 12.7385 13.3989 12.5169 13.3132 12.3101C13.2276 12.1033 13.102 11.9154 12.9438 11.7572C12.7855 11.5989 12.5976 11.4734 12.3908 11.3877C12.1841 11.3021 11.9624 11.258 11.7386 11.258C11.2866 11.258 10.8531 11.4375 10.5335 11.7572C10.2139 12.0768 10.0343 12.5103 10.0343 12.9623C10.0343 13.4143 10.2139 13.8478 10.5335 14.1674C10.8531 14.487 11.2866 14.6666 11.7386 14.6666Z" fill="#333333"/>
</svg>
