<svg width="14" height="14" viewBox="0 0 14 14" fill="none" xmlns="http://www.w3.org/2000/svg">
<path fill-rule="evenodd" clip-rule="evenodd" d="M2.54229 3.5637C2.53235 3.45368 2.54543 3.3428 2.58071 3.23812C2.61599 3.13344 2.67269 3.03726 2.74719 2.9557C2.82169 2.87414 2.91237 2.809 3.01344 2.76442C3.11451 2.71984 3.22376 2.6968 3.33422 2.69678H12.976C13.0951 2.69683 13.2127 2.72362 13.32 2.77518C13.4274 2.82673 13.5218 2.90173 13.5962 2.99465C13.6707 3.08757 13.7234 3.19602 13.7504 3.31202C13.7773 3.42801 13.7779 3.54858 13.7521 3.66482L12.9374 7.33702C12.7972 7.96809 12.446 8.53247 11.9418 8.93696C11.4375 9.34144 10.8104 9.56182 10.1639 9.5617H5.67934C4.97022 9.56174 4.28673 9.29655 3.76321 8.81823C3.2397 8.33992 2.91402 7.68309 2.8502 6.97685L2.54229 3.5637ZM3.7069 3.83298L3.98186 6.87459C4.02017 7.29853 4.21573 7.69279 4.53008 7.9798C4.84443 8.26682 5.25481 8.42581 5.68048 8.4255H10.1651C10.5528 8.42541 10.929 8.29307 11.2314 8.05035C11.5338 7.80763 11.7444 7.46903 11.8285 7.09047L12.5522 3.83298H3.7069Z" fill="white"/>
<path fill-rule="evenodd" clip-rule="evenodd" d="M0.192871 0.790024C0.192871 0.639355 0.252724 0.494856 0.359264 0.388317C0.465803 0.281777 0.610302 0.221924 0.760972 0.221924H2.75387C2.89283 0.222065 3.02692 0.273134 3.13077 0.365468C3.23462 0.457802 3.30103 0.584997 3.31742 0.722988L3.77418 4.58721C3.79181 4.73697 3.74922 4.88761 3.65578 5.00597C3.56235 5.12434 3.42572 5.20074 3.27595 5.21837C3.12619 5.236 2.97555 5.19341 2.85719 5.09997C2.73882 5.00654 2.66242 4.86991 2.64479 4.72014L2.24826 1.35699H0.760972C0.610302 1.35699 0.465803 1.29714 0.359264 1.1906C0.252724 1.08406 0.192871 0.940694 0.192871 0.790024ZM5.30578 12.5304C5.45645 12.5304 5.60094 12.4705 5.70748 12.364C5.81402 12.2575 5.87388 12.113 5.87388 11.9623C5.87388 11.8116 5.81402 11.6671 5.70748 11.5606C5.60094 11.454 5.45645 11.3942 5.30578 11.3942C5.15511 11.3942 5.01061 11.454 4.90407 11.5606C4.79753 11.6671 4.73768 11.8116 4.73768 11.9623C4.73768 12.113 4.79753 12.2575 4.90407 12.364C5.01061 12.4705 5.15511 12.5304 5.30578 12.5304ZM5.30578 13.6666C5.52959 13.6666 5.75121 13.6225 5.95798 13.5369C6.16476 13.4512 6.35264 13.3257 6.5109 13.1674C6.66916 13.0092 6.7947 12.8213 6.88035 12.6145C6.96599 12.4077 7.01008 12.1861 7.01008 11.9623C7.01008 11.7385 6.96599 11.5169 6.88035 11.3101C6.7947 11.1033 6.66916 10.9154 6.5109 10.7572C6.35264 10.5989 6.16476 10.4734 5.95798 10.3877C5.75121 10.3021 5.52959 10.258 5.30578 10.258C4.85377 10.258 4.42027 10.4375 4.10065 10.7572C3.78103 11.0768 3.60147 11.5103 3.60147 11.9623C3.60147 12.4143 3.78103 12.8478 4.10065 13.1674C4.42027 13.487 4.85377 13.6666 5.30578 13.6666ZM10.4891 12.5304C10.6398 12.5304 10.7843 12.4705 10.8908 12.364C10.9974 12.2575 11.0572 12.113 11.0572 11.9623C11.0572 11.8116 10.9974 11.6671 10.8908 11.5606C10.7843 11.454 10.6398 11.3942 10.4891 11.3942C10.3385 11.3942 10.194 11.454 10.0874 11.5606C9.98088 11.6671 9.92102 11.8116 9.92102 11.9623C9.92102 12.113 9.98088 12.2575 10.0874 12.364C10.194 12.4705 10.3385 12.5304 10.4891 12.5304ZM10.4891 13.6666C10.7129 13.6666 10.9346 13.6225 11.1413 13.5369C11.3481 13.4512 11.536 13.3257 11.6942 13.1674C11.8525 13.0092 11.978 12.8213 12.0637 12.6145C12.1493 12.4077 12.1934 12.1861 12.1934 11.9623C12.1934 11.7385 12.1493 11.5169 12.0637 11.3101C11.978 11.1033 11.8525 10.9154 11.6942 10.7572C11.536 10.5989 11.3481 10.4734 11.1413 10.3877C10.9346 10.3021 10.7129 10.258 10.4891 10.258C10.0371 10.258 9.60362 10.4375 9.284 10.7572C8.96438 11.0768 8.78482 11.5103 8.78482 11.9623C8.78482 12.4143 8.96438 12.8478 9.284 13.1674C9.60362 13.487 10.0371 13.6666 10.4891 13.6666Z" fill="white"/>
</svg>
