<svg width="16" height="16" viewBox="0 0 16 16" fill="none" xmlns="http://www.w3.org/2000/svg">
<g clip-path="url(#clip0_64_9272)">
<path d="M15.3168 0.539231L15.2976 0.521666C14.9293 0.185278 14.4519 0 13.9534 0C13.3945 0 12.8579 0.236596 12.4811 0.649068L5.35655 8.44898C5.29161 8.52006 5.24235 8.60394 5.2119 8.69525L4.37416 11.2067C4.27731 11.497 4.32592 11.8181 4.50418 12.0656C4.68386 12.315 4.97333 12.4639 5.27858 12.4639C5.41062 12.4639 5.53972 12.4368 5.66212 12.3832L8.08769 11.3221C8.17588 11.2835 8.25499 11.2269 8.31989 11.1558L15.4445 3.35591C16.1858 2.54431 16.1286 1.28085 15.3168 0.539231ZM5.97924 10.7427L6.47083 9.26906L6.51228 9.22366L7.44399 10.0746L7.40253 10.1201L5.97924 10.7427ZM14.4286 2.42801L8.37189 9.05888L7.44019 8.20789L13.4969 1.57697C13.6154 1.44727 13.7775 1.37582 13.9534 1.37582C14.1077 1.37582 14.2556 1.43324 14.3699 1.53771L14.3891 1.55528C14.6406 1.78499 14.6584 2.17651 14.4286 2.42801Z" fill="#62D0B6"/>
<path d="M13.9338 6.34682C13.5539 6.34682 13.2459 6.65482 13.2459 7.03473V12.875C13.2459 13.8396 12.461 14.6244 11.4964 14.6244H3.15897C2.19428 14.6244 1.40951 13.8396 1.40951 12.875V4.60526C1.40951 3.64062 2.19433 2.8558 3.15897 2.8558H9.19365C9.57356 2.8558 9.88156 2.5478 9.88156 2.16789C9.88156 1.78798 9.57356 1.47998 9.19365 1.47998H3.15897C1.43566 1.47998 0.0336914 2.88199 0.0336914 4.60526V12.8749C0.0336914 14.5982 1.4357 16.0002 3.15897 16.0002H11.4964C13.2196 16.0002 14.6216 14.5982 14.6216 12.8749V7.03473C14.6217 6.65482 14.3137 6.34682 13.9338 6.34682Z" fill="#62D0B6"/>
</g>
<defs>
<clipPath id="clip0_64_9272">
<rect width="16" height="16" fill="white"/>
</clipPath>
</defs>
</svg>
