<svg width="17" height="16" viewBox="0 0 17 16" fill="none" xmlns="http://www.w3.org/2000/svg">
<g clip-path="url(#clip0_16_12688)">
<path d="M13.9327 13.8887H3.06683C2.41655 13.8879 1.79315 13.6292 1.33337 13.1693C0.873597 12.7094 0.614984 12.086 0.614258 11.4357V4.56439C0.614984 3.91415 0.873612 3.29075 1.3334 2.83096C1.79319 2.37117 2.41659 2.11254 3.06683 2.11182H13.9327C14.5829 2.11254 15.2064 2.37116 15.6662 2.83093C16.1261 3.29071 16.3848 3.91411 16.3857 4.56439V11.4357C16.385 12.0861 16.1263 12.7096 15.6664 13.1695C15.2065 13.6293 14.583 13.888 13.9327 13.8887ZM3.06683 3.25467C2.71958 3.25504 2.38666 3.39314 2.14112 3.63868C1.89558 3.88422 1.75748 4.21714 1.75712 4.56439V11.4357C1.75736 11.783 1.89541 12.1161 2.14096 12.3617C2.38651 12.6073 2.7195 12.7455 3.06683 12.7459H13.9327C14.28 12.7455 14.6131 12.6074 14.8587 12.3617C15.1043 12.1161 15.2425 11.7831 15.2428 11.4357V4.56439C15.2423 4.2171 15.1041 3.88418 14.8585 3.63865C14.6129 3.39313 14.2799 3.25504 13.9327 3.25467H3.06683Z" fill="#62D0B6"/>
<path d="M8.49282 9.53816C8.01337 9.54288 7.54633 9.38586 7.16711 9.09245L1.05602 4.2225C0.937509 4.128 0.861392 3.99028 0.844417 3.83965C0.827443 3.68902 0.871 3.53782 0.965508 3.4193C1.06002 3.30079 1.19773 3.22467 1.34836 3.2077C1.49899 3.19072 1.65019 3.23428 1.76871 3.32879L7.87797 8.19873C8.05844 8.32674 8.27436 8.39523 8.49562 8.39466C8.71688 8.39408 8.93244 8.32447 9.11225 8.19553L15.1461 3.33108C15.264 3.23596 15.4148 3.19158 15.5655 3.2077C15.7161 3.22382 15.8542 3.29911 15.9493 3.41702C16.0444 3.53493 16.0888 3.68579 16.0727 3.83642C16.0565 3.98705 15.9812 4.1251 15.8633 4.22022L9.83134 9.08467C9.4495 9.38325 8.97751 9.54316 8.49282 9.53816Z" fill="#62D0B6"/>
</g>
<defs>
<clipPath id="clip0_16_12688">
<rect width="16" height="16" fill="white" transform="translate(0.5)"/>
</clipPath>
</defs>
</svg>
