<svg width="20" height="20" viewBox="0 0 20 20" fill="none" xmlns="http://www.w3.org/2000/svg">
<path d="M2.42466 10.9765C2.14002 10.3573 2.14002 9.64288 2.42466 9.02362C3.74225 6.1571 6.63891 4.16675 10.0004 4.16675C13.362 4.16675 16.2586 6.15711 17.5762 9.02362C17.8608 9.64288 17.8608 10.3573 17.5762 10.9766C16.2586 13.8431 13.362 15.8334 10.0004 15.8334C6.63891 15.8334 3.74225 13.8431 2.42466 10.9765Z" stroke="#807D7E" stroke-width="1.5"/>
<path d="M12.5004 10.0001C12.5004 11.3808 11.3811 12.5001 10.0004 12.5001C8.61972 12.5001 7.50043 11.3808 7.50043 10.0001C7.50043 8.61937 8.61972 7.50008 10.0004 7.50008C11.3811 7.50008 12.5004 8.61937 12.5004 10.0001Z" stroke="#807D7E" stroke-width="1.5"/>
</svg>
