<svg width="41" height="40" viewBox="0 0 41 40" fill="none" xmlns="http://www.w3.org/2000/svg">
<g clip-path="url(#clip0_34_28729)">
<path d="M26.917 9.0625H14.417C11.8323 9.0625 9.72949 11.1653 9.72949 13.75V26.25C9.72949 28.8347 11.8323 30.9375 14.417 30.9375H26.917C29.5017 30.9375 31.6045 28.8347 31.6045 26.25V13.75C31.6045 11.1653 29.5017 9.0625 26.917 9.0625ZM28.4795 26.25C28.4795 27.1116 27.7786 27.8125 26.917 27.8125H14.417C13.5554 27.8125 12.8545 27.1116 12.8545 26.25V13.75C12.8545 12.8884 13.5554 12.1875 14.417 12.1875H19.1045V16.875C19.1045 17.738 19.804 18.4375 20.667 18.4375C21.53 18.4375 22.2295 17.738 22.2295 16.875V12.1875H26.917C27.7786 12.1875 28.4795 12.8884 28.4795 13.75V26.25Z" fill="#62D0B6"/>
<path d="M36.292 2.8125C35.429 2.8125 34.7295 3.51203 34.7295 4.375V5.38805C33.4357 4.17664 31.9732 3.13961 30.385 2.31562C27.4651 0.800781 24.1046 0 20.667 0C9.45199 0 0.666992 8.78508 0.666992 20C0.666992 21.1347 0.761445 22.2731 0.947773 23.3836C1.07598 24.1471 1.73754 24.6878 2.48691 24.6877C2.57277 24.6877 2.6598 24.6806 2.7473 24.6659C3.5984 24.5231 4.17246 23.7175 4.02973 22.8664C3.87191 21.9264 3.79199 20.962 3.79199 20C3.79199 10.5373 11.2044 3.125 20.667 3.125C26.655 3.125 31.8758 5.81203 34.9909 10.497C35.3723 11.0708 36.0845 11.3268 36.7439 11.1277C37.4032 10.9284 37.8545 10.3208 37.8545 9.63188V4.375C37.8545 3.51203 37.155 2.8125 36.292 2.8125Z" fill="#62D0B6"/>
<path d="M20.667 39.9998C17.2294 39.9998 13.8689 39.199 10.9489 37.6841C9.36082 36.8601 7.89824 35.8231 6.60449 34.6117V35.6248C6.60449 36.4877 5.90496 37.1873 5.04199 37.1873C4.17902 37.1873 3.47949 36.4877 3.47949 35.6248V30.3679C3.47949 29.679 3.93066 29.0714 4.59012 28.8721C5.24941 28.673 5.96168 28.929 6.34309 29.5027C9.45816 34.1877 14.679 36.8748 20.667 36.8748C30.1296 36.8748 37.542 29.4624 37.542 19.9998C37.542 19.0378 37.4621 18.0734 37.3043 17.1334C37.1615 16.2823 37.7356 15.4766 38.5867 15.3338C39.438 15.1909 40.2434 15.7652 40.3862 16.6162C40.5725 17.7266 40.667 18.8651 40.667 19.9998C40.667 31.2147 31.882 39.9998 20.667 39.9998Z" fill="#62D0B6"/>
</g>
<defs>
<clipPath id="clip0_34_28729">
<rect width="40" height="40" fill="white" transform="translate(0.666992)"/>
</clipPath>
</defs>
</svg>
