<svg width="16" height="17" viewBox="0 0 16 17" fill="none" xmlns="http://www.w3.org/2000/svg">
<g clip-path="url(#clip0_64_9326)">
<path d="M14.1239 9.08307V7.09601H14.5925C14.8513 7.09601 15.0612 6.8862 15.0612 6.62739V4.78411C15.0612 4.00889 14.4305 3.3782 13.6553 3.3782H11.9496C12.7213 2.06224 11.7318 0.43171 10.2266 0.50221C9.55599 0.533178 8.96427 0.903803 8.64314 1.49465L7.95264 2.77261L7.26168 1.49361C6.94115 0.903803 6.3494 0.533178 5.67877 0.50221C4.17365 0.432022 3.18378 2.0618 3.95575 3.3782H2.34559C1.57038 3.3782 0.93969 4.00889 0.93969 4.78411V6.62742C0.93969 6.88623 1.1495 7.09604 1.40831 7.09604H1.87694V9.9391H0.471065C0.212254 9.9391 0.00244141 10.1489 0.00244141 10.4077V16.0313C0.00244141 16.2901 0.212254 16.5 0.471065 16.5H2.34559C2.57575 16.5 2.76678 16.3339 2.80631 16.1152C3.72475 16.3668 4.72028 16.5 5.69046 16.5H9.87498C10.8986 16.5 11.8766 16.0126 12.4932 15.1959C12.5027 15.1842 15.7086 11.2628 15.7177 11.2508C15.9013 11.0059 15.9984 10.7144 15.9984 10.4077C15.9984 9.44722 15.0455 8.75657 14.1239 9.08307ZM1.87697 12.2823V15.5627H0.93969V10.8763H1.87697V12.2823ZM13.6553 4.31548C13.9137 4.31548 14.1239 4.5257 14.1239 4.78411V6.15876H9.40633V4.31545C9.5543 4.31548 13.512 4.31548 13.6553 4.31548ZM13.1867 7.09604V9.84151L11.2229 11.8833C11.0504 11.3018 10.5116 10.8763 9.87498 10.8763H9.40636V7.09604H13.1867ZM9.4672 1.94114C9.62977 1.64205 9.9298 1.45415 10.2698 1.43843C11.0099 1.40418 11.5237 2.18961 11.1628 2.86567C10.9915 3.18658 10.6743 3.37817 10.3143 3.37817C10.118 3.37817 8.87371 3.37817 8.6908 3.37817L9.4672 1.94114ZM7.5318 4.31548C7.88068 4.31548 8.12921 4.31548 8.46908 4.31548V10.8763H7.71005C7.65008 10.8763 7.59052 10.8718 7.5318 10.8634V4.31548ZM5.58965 1.4374C5.6049 1.4374 5.62021 1.43774 5.63556 1.43846C5.97559 1.45418 6.27565 1.64208 6.43765 1.94018L7.21461 3.37824C6.48659 3.37824 6.04718 3.37824 5.59109 3.37824C5.23106 3.3782 4.91387 3.18664 4.74259 2.86571C4.38928 2.20389 4.87374 1.4374 5.58965 1.4374ZM1.87697 6.15876V4.78411C1.87697 4.5257 2.08719 4.31548 2.34559 4.31548C2.38025 4.31548 6.53887 4.31548 6.59455 4.31548V6.15879L1.87697 6.15876ZM6.59452 7.09604V10.3377C6.04521 9.95579 5.38681 9.74807 4.70437 9.74807C4.02193 9.74807 3.3635 9.95579 2.81422 10.3377V7.09604H6.59452ZM14.9727 10.6818L11.7616 14.61C11.7575 14.6151 11.7535 14.6202 11.7495 14.6255C11.3093 15.2123 10.6086 15.5627 9.87498 15.5627H5.69049C4.62934 15.5627 3.75387 15.4086 2.81425 15.1444V12.2823V11.5569L3.14081 11.2695C4.03218 10.4851 5.37656 10.4851 6.26796 11.2695C6.66862 11.6221 7.18502 11.8137 7.71005 11.8137H9.87498C10.1334 11.8137 10.3436 12.0239 10.3436 12.2823C10.3436 12.5407 10.1334 12.7509 9.87498 12.7509H6.54437C6.28555 12.7509 6.07574 12.9607 6.07574 13.2195C6.07574 13.4783 6.28555 13.6882 6.54437 13.6882H10.1891C10.5764 13.6882 10.9501 13.5262 11.2149 13.2436C11.3328 13.121 14.1443 10.1979 14.2444 10.0938C14.2452 10.093 14.2459 10.092 14.2467 10.0911C14.2476 10.0902 14.2486 10.0894 14.2495 10.0884C14.5371 9.77969 15.0612 9.98151 15.0612 10.4077C15.0612 10.5072 15.0306 10.6018 14.9727 10.6818Z" fill="#62D0B6"/>
</g>
<defs>
<clipPath id="clip0_64_9326">
<rect width="16" height="16" fill="white" transform="translate(0 0.5)"/>
</clipPath>
</defs>
</svg>
