<svg width="41" height="40" viewBox="0 0 41 40" fill="none" xmlns="http://www.w3.org/2000/svg">
<g clip-path="url(#clip0_34_28785)">
<path d="M30.543 23.7812C27.7628 23.7812 25.501 26.043 25.501 28.8233C25.501 31.6035 27.7628 33.8653 30.543 33.8653C33.3237 33.8653 35.585 31.6035 35.585 28.8233C35.585 26.043 33.3232 23.7812 30.543 23.7812ZM30.543 31.3443C29.1527 31.3443 28.022 30.2136 28.022 28.8233C28.022 27.433 29.1527 26.3023 30.543 26.3023C31.9333 26.3023 33.064 27.433 33.064 28.8233C33.064 30.2137 31.9333 31.3443 30.543 31.3443Z" fill="#62D0B6"/>
<path d="M13.3164 23.7812C10.5362 23.7812 8.27441 26.043 8.27441 28.8233C8.27441 31.6035 10.5362 33.8653 13.3164 33.8653C16.0967 33.8653 18.3585 31.6035 18.3585 28.8233C18.3585 26.043 16.0967 23.7812 13.3164 23.7812ZM13.3164 31.3443C11.9261 31.3443 10.7954 30.2136 10.7954 28.8233C10.7954 27.433 11.9261 26.3023 13.3164 26.3023C14.7064 26.3023 15.8375 27.433 15.8375 28.8233C15.8375 30.2137 14.7068 31.3443 13.3164 31.3443Z" fill="#62D0B6"/>
<path d="M33.938 9.34941C33.7237 8.92379 33.288 8.65527 32.8115 8.65527H26.1729V11.1763H32.0342L35.4665 18.0032L37.7195 16.8704L33.938 9.34941Z" fill="#62D0B6"/>
<path d="M26.7614 27.605H17.2236V30.126H26.7614V27.605Z" fill="#62D0B6"/>
<path d="M9.53348 27.605H5.16379C4.46754 27.605 3.90332 28.1693 3.90332 28.8654C3.90332 29.5617 4.46762 30.1259 5.16379 30.1259H9.53355C10.2298 30.1259 10.794 29.5616 10.794 28.8654C10.794 28.1692 10.2297 27.605 9.53348 27.605Z" fill="#62D0B6"/>
<path d="M40.0672 19.899L37.5878 16.7057C37.3496 16.3981 36.9819 16.2183 36.5924 16.2183H27.4327V7.39475C27.4327 6.6985 26.8684 6.13428 26.1722 6.13428H5.16379C4.46754 6.13428 3.90332 6.69857 3.90332 7.39475C3.90332 8.09092 4.46762 8.65521 5.16379 8.65521H24.9117V17.4787C24.9117 18.175 25.476 18.7392 26.1721 18.7392H35.9751L37.8108 21.1039V27.6047H34.3234C33.6271 27.6047 33.0629 28.169 33.0629 28.8652C33.0629 29.5615 33.6272 30.1257 34.3234 30.1257H39.0713C39.7675 30.1257 40.3318 29.5614 40.3318 28.8652V20.6721C40.3318 20.3922 40.2386 20.12 40.0672 19.899Z" fill="#62D0B6"/>
<path d="M9.45043 21.2188H3.65207C2.95582 21.2188 2.3916 21.783 2.3916 22.4792C2.3916 23.1755 2.9559 23.7397 3.65207 23.7397H9.45035C10.1466 23.7397 10.7108 23.1754 10.7108 22.4792C10.7109 21.783 10.1466 21.2188 9.45043 21.2188Z" fill="#62D0B6"/>
<path d="M12.3498 16.2603H1.59348C0.897305 16.2603 0.333008 16.8246 0.333008 17.5208C0.333008 18.2171 0.897305 18.7813 1.59348 18.7813H12.3498C13.0461 18.7813 13.6103 18.217 13.6103 17.5208C13.6103 16.8246 13.0461 16.2603 12.3498 16.2603Z" fill="#62D0B6"/>
<path d="M14.4084 11.3027H3.65207C2.95582 11.3027 2.3916 11.867 2.3916 12.5632C2.3916 13.2595 2.9559 13.8237 3.65207 13.8237H14.4084C15.1046 13.8237 15.6689 13.2594 15.6689 12.5632C15.6689 11.867 15.1046 11.3027 14.4084 11.3027Z" fill="#62D0B6"/>
</g>
<defs>
<clipPath id="clip0_34_28785">
<rect width="40" height="40" fill="white" transform="translate(0.333008)"/>
</clipPath>
</defs>
</svg>
