<svg width="16" height="17" viewBox="0 0 16 17" fill="none" xmlns="http://www.w3.org/2000/svg">
<path d="M11.6875 1.47559C10.3566 1.47559 9.18981 2.06905 8.31341 3.19187C8.19653 3.34162 8.09234 3.49143 8 3.63652C7.90766 3.4914 7.80347 3.34162 7.68659 3.19187C6.81019 2.06905 5.64344 1.47559 4.3125 1.47559C1.79825 1.47559 0 3.58081 0 6.10696C0 8.99549 2.36741 11.7178 7.67616 14.9338C7.77569 14.9941 7.88784 15.0243 8 15.0243C8.11216 15.0243 8.22431 14.9941 8.32384 14.9339C13.6326 11.7178 16 8.99552 16 6.10699C16 3.58215 14.2032 1.47559 11.6875 1.47559ZM13.0987 9.70368C11.9934 10.9369 10.3233 12.2354 8 13.6669C5.67672 12.2354 4.00656 10.9369 2.90134 9.70371C1.79016 8.46384 1.25 7.28734 1.25 6.10699C1.25 4.28812 2.47919 2.72559 4.3125 2.72559C5.24613 2.72559 6.04219 3.13152 6.67859 3.93215C7.18747 4.57243 7.40188 5.23359 7.40338 5.2383C7.48478 5.4994 7.72653 5.67724 8.00003 5.67724C8.27353 5.67724 8.51528 5.49943 8.59669 5.2383C8.59866 5.23199 8.80663 4.59146 9.29878 3.96096C9.93863 3.14121 10.7423 2.72555 11.6875 2.72555C13.5227 2.72555 14.75 4.28959 14.75 6.10696C14.75 7.2873 14.2098 8.4638 13.0987 9.70368Z" fill="#666666"/>
</svg>
