<svg width="41" height="40" viewBox="0 0 41 40" fill="none" xmlns="http://www.w3.org/2000/svg">
<rect x="0.490234" width="40" height="40" rx="20" fill="#F8F8F8"/>
<path d="M20.4902 20.75C17.3202 20.75 14.7402 18.17 14.7402 15C14.7402 11.83 17.3202 9.25 20.4902 9.25C23.6602 9.25 26.2402 11.83 26.2402 15C26.2402 18.17 23.6602 20.75 20.4902 20.75ZM20.4902 10.75C18.1502 10.75 16.2402 12.66 16.2402 15C16.2402 17.34 18.1502 19.25 20.4902 19.25C22.8302 19.25 24.7402 17.34 24.7402 15C24.7402 12.66 22.8302 10.75 20.4902 10.75Z" fill="#666666"/>
<path d="M29.0804 30.75C28.6704 30.75 28.3304 30.41 28.3304 30C28.3304 26.55 24.8104 23.75 20.4904 23.75C16.1704 23.75 12.6504 26.55 12.6504 30C12.6504 30.41 12.3104 30.75 11.9004 30.75C11.4904 30.75 11.1504 30.41 11.1504 30C11.1504 25.73 15.3404 22.25 20.4904 22.25C25.6404 22.25 29.8304 25.73 29.8304 30C29.8304 30.41 29.4904 30.75 29.0804 30.75Z" fill="#666666"/>
</svg>
