<svg width="32" height="32" viewBox="0 0 32 32" fill="none" xmlns="http://www.w3.org/2000/svg">
<rect x="0.5" y="0.5" width="31" height="31" rx="15.5" fill="white"/>
<rect x="0.5" y="0.5" width="31" height="31" rx="15.5" stroke="#EEEEEE"/>
<path d="M20.9165 15.5832H16.4165V11.0832C16.4165 10.853 16.23 10.6665 15.9998 10.6665C15.7697 10.6665 15.5832 10.853 15.5832 11.0832V15.5832H11.0832C10.853 15.5832 10.6665 15.7697 10.6665 15.9998C10.6665 16.23 10.853 16.4165 11.0832 16.4165H15.5832V20.9165C15.5832 21.1466 15.7697 21.3332 15.9998 21.3332C16.23 21.3332 16.4165 21.1466 16.4165 20.9165V16.4165H20.9165C21.1466 16.4165 21.3332 16.23 21.3332 15.9998C21.3332 15.7697 21.1466 15.5832 20.9165 15.5832Z" fill="#666666"/>
</svg>
