<svg width="73" height="13" viewBox="0 0 73 13" fill="none" xmlns="http://www.w3.org/2000/svg">
<g clip-path="url(#clip0_2299_216)">
<path d="M12.9813 5.00829C12.9365 4.8704 12.8174 4.7699 12.6739 4.74908L8.64387 4.16345L6.84153 0.511607C6.77739 0.381607 6.64498 0.299316 6.50002 0.299316C6.35504 0.299316 6.22266 0.381607 6.15849 0.511607L4.35607 4.16345L0.326087 4.74908C0.182656 4.7699 0.0634476 4.8704 0.0186587 5.00827C-0.0261556 5.14616 0.0112193 5.29752 0.115041 5.3987L3.03109 8.24127L2.34281 12.2551C2.31828 12.398 2.37703 12.5423 2.49431 12.6276C2.56066 12.6758 2.63924 12.7003 2.7182 12.7003C2.77884 12.7003 2.83967 12.6859 2.89538 12.6566L6.5 10.7615L10.1045 12.6565C10.2328 12.724 10.3883 12.7128 10.5056 12.6276C10.6228 12.5423 10.6816 12.3979 10.6571 12.255L9.9686 8.24127L12.885 5.39867C12.9888 5.29752 13.0262 5.14616 12.9813 5.00829Z" fill="#D6D6D6"/>
</g>
<g clip-path="url(#clip1_2299_216)">
<path d="M27.9813 5.00829C27.9365 4.8704 27.8174 4.7699 27.6739 4.74908L23.6439 4.16345L21.8415 0.511607C21.7774 0.381607 21.645 0.299316 21.5 0.299316C21.355 0.299316 21.2227 0.381607 21.1585 0.511607L19.3561 4.16345L15.3261 4.74908C15.1827 4.7699 15.0634 4.8704 15.0187 5.00827C14.9738 5.14616 15.0112 5.29752 15.115 5.3987L18.0311 8.24127L17.3428 12.2551C17.3183 12.398 17.377 12.5423 17.4943 12.6276C17.5607 12.6758 17.6392 12.7003 17.7182 12.7003C17.7788 12.7003 17.8397 12.6859 17.8954 12.6566L21.5 10.7615L25.1045 12.6565C25.2328 12.724 25.3883 12.7128 25.5056 12.6276C25.6228 12.5423 25.6816 12.3979 25.6571 12.255L24.9686 8.24127L27.885 5.39867C27.9888 5.29752 28.0262 5.14616 27.9813 5.00829Z" fill="#FFC62A"/>
</g>
<g clip-path="url(#clip2_2299_216)">
<path d="M42.9813 5.00829C42.9365 4.8704 42.8174 4.7699 42.6739 4.74908L38.6439 4.16345L36.8415 0.511607C36.7774 0.381607 36.645 0.299316 36.5 0.299316C36.355 0.299316 36.2227 0.381607 36.1585 0.511607L34.3561 4.16345L30.3261 4.74908C30.1827 4.7699 30.0634 4.8704 30.0187 5.00827C29.9738 5.14616 30.0112 5.29752 30.115 5.3987L33.0311 8.24127L32.3428 12.2551C32.3183 12.398 32.377 12.5423 32.4943 12.6276C32.5607 12.6758 32.6392 12.7003 32.7182 12.7003C32.7788 12.7003 32.8397 12.6859 32.8954 12.6566L36.5 10.7615L40.1045 12.6565C40.2328 12.724 40.3883 12.7128 40.5056 12.6276C40.6228 12.5423 40.6816 12.3979 40.6571 12.255L39.9686 8.24127L42.885 5.39867C42.9888 5.29752 43.0262 5.14616 42.9813 5.00829Z" fill="#FFC62A"/>
</g>
<g clip-path="url(#clip3_2299_216)">
<path d="M57.9813 5.00829C57.9365 4.8704 57.8174 4.7699 57.6739 4.74908L53.6439 4.16345L51.8415 0.511607C51.7774 0.381607 51.645 0.299316 51.5 0.299316C51.355 0.299316 51.2227 0.381607 51.1585 0.511607L49.3561 4.16345L45.3261 4.74908C45.1827 4.7699 45.0634 4.8704 45.0187 5.00827C44.9738 5.14616 45.0112 5.29752 45.115 5.3987L48.0311 8.24127L47.3428 12.2551C47.3183 12.398 47.377 12.5423 47.4943 12.6276C47.5607 12.6758 47.6392 12.7003 47.7182 12.7003C47.7788 12.7003 47.8397 12.6859 47.8954 12.6566L51.5 10.7615L55.1045 12.6565C55.2328 12.724 55.3883 12.7128 55.5056 12.6276C55.6228 12.5423 55.6816 12.3979 55.6571 12.255L54.9686 8.24127L57.885 5.39867C57.9888 5.29752 58.0262 5.14616 57.9813 5.00829Z" fill="#FFC62A"/>
</g>
<g clip-path="url(#clip4_2299_216)">
<path d="M72.9813 5.00829C72.9365 4.8704 72.8174 4.7699 72.6739 4.74908L68.6439 4.16345L66.8415 0.511607C66.7774 0.381607 66.645 0.299316 66.5 0.299316C66.355 0.299316 66.2227 0.381607 66.1585 0.511607L64.3561 4.16345L60.3261 4.74908C60.1827 4.7699 60.0634 4.8704 60.0187 5.00827C59.9738 5.14616 60.0112 5.29752 60.115 5.3987L63.0311 8.24127L62.3428 12.2551C62.3183 12.398 62.377 12.5423 62.4943 12.6276C62.5607 12.6758 62.6392 12.7003 62.7182 12.7003C62.7788 12.7003 62.8397 12.6859 62.8954 12.6566L66.5 10.7615L70.1045 12.6565C70.2328 12.724 70.3883 12.7128 70.5056 12.6276C70.6228 12.5423 70.6816 12.3979 70.6571 12.255L69.9686 8.24127L72.885 5.39867C72.9888 5.29752 73.0262 5.14616 72.9813 5.00829Z" fill="#FFC62A"/>
</g>
<defs>
<clipPath id="clip0_2299_216">
<rect width="13" height="13" fill="white"/>
</clipPath>
<clipPath id="clip1_2299_216">
<rect width="13" height="13" fill="white" transform="translate(15)"/>
</clipPath>
<clipPath id="clip2_2299_216">
<rect width="13" height="13" fill="white" transform="translate(30)"/>
</clipPath>
<clipPath id="clip3_2299_216">
<rect width="13" height="13" fill="white" transform="translate(45)"/>
</clipPath>
<clipPath id="clip4_2299_216">
<rect width="13" height="13" fill="white" transform="translate(60)"/>
</clipPath>
</defs>
</svg>
