<svg width="40" height="40" viewBox="0 0 40 40" fill="none" xmlns="http://www.w3.org/2000/svg">
<path d="M35.3125 2.8125H10.9375C8.35281 2.8125 6.25 4.91531 6.25 7.5C6.25 8.36297 6.94953 9.0625 7.8125 9.0625C8.67547 9.0625 9.375 8.36297 9.375 7.5C9.375 6.63844 10.0759 5.9375 10.9375 5.9375H35.3125C36.1741 5.9375 36.875 6.63844 36.875 7.5V23.125C36.875 23.9866 36.1741 24.6875 35.3125 24.6875H33.75V16.875C33.75 14.2903 31.6472 12.1875 29.0625 12.1875H4.6875C2.10281 12.1875 0 14.2903 0 16.875V32.5C0 35.0847 2.10281 37.1875 4.6875 37.1875H29.0625C31.6472 37.1875 33.75 35.0847 33.75 32.5V27.8125H35.3125C37.8972 27.8125 40 25.7097 40 23.125V7.5C40 4.91531 37.8972 2.8125 35.3125 2.8125ZM30.625 32.5C30.625 33.3616 29.9241 34.0625 29.0625 34.0625H4.6875C3.82594 34.0625 3.125 33.3616 3.125 32.5V16.875C3.125 16.0134 3.82594 15.3125 4.6875 15.3125H29.0625C29.9241 15.3125 30.625 16.0134 30.625 16.875V18.4375H7.8125C6.94953 18.4375 6.25 19.137 6.25 20C6.25 20.863 6.94953 21.5625 7.8125 21.5625H30.625V32.5Z" fill="#62D0B6"/>
<path d="M25.9375 30.9375H19.6875C18.8245 30.9375 18.125 30.238 18.125 29.375C18.125 28.512 18.8245 27.8125 19.6875 27.8125H25.9375C26.8005 27.8125 27.5 28.512 27.5 29.375C27.5 30.238 26.8005 30.9375 25.9375 30.9375Z" fill="#62D0B6"/>
</svg>
