<svg width="16" height="17" viewBox="0 0 16 17" fill="none" xmlns="http://www.w3.org/2000/svg">
<g clip-path="url(#clip0_2299_1638)">
<path d="M12.3845 10.4624C11.4516 10.4624 10.6164 10.888 10.0622 11.5551L6.45721 9.50838C6.56931 9.19291 6.63093 8.85371 6.63093 8.50021C6.63093 8.14679 6.56931 7.80758 6.45721 7.49211L10.0619 5.44486C10.616 6.11221 11.4514 6.53796 12.3844 6.53796C14.0486 6.53796 15.4026 5.18347 15.4026 3.51852C15.4028 1.85406 14.0488 0.5 12.3845 0.5C10.7201 0.5 9.36595 1.85406 9.36595 3.51845C9.36595 3.87195 9.42749 4.21122 9.53967 4.52676L5.93478 6.57408C5.38067 5.90708 4.54551 5.48162 3.61276 5.48162C1.94809 5.48162 0.59375 6.83568 0.59375 8.50014C0.59375 10.1645 1.94809 11.5186 3.61276 11.5186C4.54551 11.5186 5.3806 11.0931 5.93471 10.4262L9.53967 12.473C9.42749 12.7886 9.36588 13.1279 9.36588 13.4815C9.36588 15.1459 10.72 16.4999 12.3845 16.4999C14.0487 16.4999 15.4027 15.1458 15.4027 13.4815C15.4028 11.8168 14.0488 10.4624 12.3845 10.4624ZM12.3845 1.55626C13.4664 1.55626 14.3465 2.43648 14.3465 3.51845C14.3465 4.60098 13.4664 5.48162 12.3845 5.48162C11.3025 5.48162 10.4222 4.60098 10.4222 3.51845C10.4222 2.43648 11.3025 1.55626 12.3845 1.55626ZM3.61283 10.4624C2.53059 10.4624 1.65008 9.58211 1.65008 8.50021C1.65008 7.41817 2.53059 6.53796 3.61283 6.53796C4.69466 6.53796 5.57474 7.41817 5.57474 8.50021C5.57474 9.58211 4.69459 10.4624 3.61283 10.4624ZM12.3845 15.4437C11.3025 15.4437 10.4222 14.5634 10.4222 13.4816C10.4222 12.3992 11.3025 11.5187 12.3845 11.5187C13.4664 11.5187 14.3465 12.3992 14.3465 13.4816C14.3465 14.5634 13.4664 15.4437 12.3845 15.4437Z" fill="#666666"/>
</g>
<defs>
<clipPath id="clip0_2299_1638">
<rect width="16" height="16" fill="white" transform="translate(0 0.5)"/>
</clipPath>
</defs>
</svg>
